<svg id="Layer_1" data-name="Layer 1" xmlns="http://www.w3.org/2000/svg" xmlns:xlink="http://www.w3.org/1999/xlink" viewBox="0 0 1181.45 786.75"><defs><style>.cls-1,.cls-2{fill:none;}.cls-1,.cls-7{stroke:#fff;stroke-miterlimit:10;stroke-width:6px;}.cls-3{fill:#162b2f;}.cls-4{fill:#fff;}.cls-5{fill:#ed1943;}.cls-6{clip-path:url(#clip-path);}.cls-7{fill:url(#radial-gradient);}.cls-8{clip-path:url(#clip-path-2);}.cls-9{clip-path:url(#clip-path-3);}.cls-10{clip-path:url(#clip-path-4);}.cls-11{clip-path:url(#clip-path-5);}.cls-12{fill:url(#New_Pattern_Swatch_1);}.cls-13{fill:#b62033;}</style><clipPath id="clip-path" transform="translate(23.97 -52.38)"><path class="cls-1" d="M590.84,533.82q-17.77-65.57-37.47-130.56-41.25.44-82.4,2.41,4.17,104,8.35,208.05,25.38-1.37,50.79-1.89-1-65.88-2-131.78,17.29,54.23,33.23,108.85,28.62,0,57.24,1,17.41-54,36.17-107.58-2.81,65.82-5.6,131.64,25.38,1.44,50.72,3.73,7-103.83,14-207.64-41.13-3.48-82.3-5.4Q610.24,469,590.84,533.82Z"/></clipPath><radialGradient id="radial-gradient" cx="562.63" cy="760.53" r="1276.57" gradientTransform="translate(23.97 420.61) scale(1 0.38)" gradientUnits="userSpaceOnUse"><stop offset="0.32" stop-color="#fff"/><stop offset="0.58" stop-color="#171717"/><stop offset="0.59" stop-color="#fff"/></radialGradient><clipPath id="clip-path-2" transform="translate(23.97 -52.38)"><path class="cls-1" d="M268,536.68c-1.12-7.55-2.27-14.34-3.25-17.17q-51,9.74-101.35,22.16,4.07,21.66,8.12,43.32,19.83-5,39.81-9.5c-4,17.1-17.81,29.3-34.46,33.42C148.17,616,123,598.13,117,569.73c-6.2-29.46,9.95-58.33,39.61-65.94a49.6,49.6,0,0,1,42.95,8.58q18.84-22.35,38.37-44.12C212,447.85,178.53,442.82,147,450.8,86.24,466.19,47.09,524.28,62,586.24c13.52,56.43,66.83,90.28,123.48,75.94C241.43,648,276.41,593.31,268,536.68Z"/></clipPath><clipPath id="clip-path-3" transform="translate(23.97 -52.38)"><path class="cls-1" d="M316.44,421.08q-28.28,108.77-49.83,219,26.65-5.22,53.5-9.48,4-20.33,8.25-40.6,37.29-5.41,74.7-9.41,7.94,18.74,15.61,37.59,27-2.52,54-4.08-41.52-102.18-89.43-201.43Q349.78,416.4,316.44,421.08Zm23.61,115q7.38-31.9,15.19-63.7,13.39,29.15,26.38,58.47Q360.82,533.2,340.05,536.12Z"/></clipPath><clipPath id="clip-path-4" transform="translate(23.97 -52.38)"><path class="cls-1" d="M775.74,574.32c1.13-11,1.69-16.49,2.81-27.48q47.79,6.81,95.1,15.95l7.56-51q-48.54-9.37-97.4-16.34c1-10.05,1.54-15.07,2.57-25.12q51.89,7.38,103.21,17.47,3.84-25.5,7.67-51C843.39,426.21,789.33,418,734.75,412.09q-7.95,103.73-15.91,207.46c50.29,5.47,100.1,13.08,149.74,22.85q3.85-25.5,7.72-51Q826.21,581.49,775.74,574.32Z"/></clipPath><clipPath id="clip-path-5" transform="translate(23.97 -52.38)"><path class="cls-1" d="M988.5,536c-21.34-10.93-29.06-15.16-27.71-22.43,1.46-7.86,10.07-12.33,26.72-7.76,20.87,5.74,37,18.28,52.59,33q17.76-18.46,36-36.52a154.68,154.68,0,0,0-74-44.84c-42.07-10.94-95.39-2-102.42,49.32-6.08,44.41,38.2,63.08,71.12,81.25,19.08,10.55,24.47,14,22.77,22.14-1.94,9.25-11.11,12-24.68,8.18-22.23-6.2-46.33-21-61.39-39.06q-15.76,19.4-31.23,39c21.22,24,51.73,40.29,80.94,48.85,36.34,10.65,85.47.56,95.37-43.35C1062.27,580.51,1021.84,553.07,988.5,536Z"/></clipPath><pattern id="New_Pattern_Swatch_1" data-name="New Pattern Swatch 1" width="836.7" height="632.64" patternUnits="userSpaceOnUse" viewBox="0 0 836.7 632.64"><rect class="cls-2" width="836.7" height="632.64"/><rect class="cls-3" width="836.7" height="632.64"/></pattern></defs><title>bgames</title><path class="cls-4" d="M175.52,447.19c22.34,0,44.24,6.75,62.42,21.06Q218.43,490,199.57,512.37a48.79,48.79,0,0,0-30.07-10.21,51.86,51.86,0,0,0-12.88,1.63C127,511.4,110.81,540.27,117,569.73c5.09,24.18,24.1,40.74,47.36,40.74a51.75,51.75,0,0,0,12.51-1.56c16.65-4.12,30.43-16.32,34.46-33.42q-20,4.46-39.81,9.5-4.07-21.66-8.12-43.32,50.43-12.45,101.35-22.16c1,2.83,2.13,9.62,3.25,17.17,8.4,56.63-26.58,111.32-82.58,125.5a106.19,106.19,0,0,1-26,3.29c-46.24,0-86.06-31.56-97.48-79.23-14.86-62,24.29-120,85.06-135.44a116.41,116.41,0,0,1,28.51-3.61m0-40h0A156.62,156.62,0,0,0,137.19,412c-39.62,10-73.27,34-94.73,67.43A148.8,148.8,0,0,0,23.05,595.56c7.65,31.94,24.76,59.37,49.46,79.3a137.93,137.93,0,0,0,86.91,30.61A146,146,0,0,0,195.25,701a150.16,150.16,0,0,0,89.12-63.75,153.32,153.32,0,0,0,23.21-106.38c-1.87-12.62-3.23-19.24-5-24.43l-11.33-32.65-5.38,1,10.37-11.55-33.53-26.39c-24.62-19.38-54.76-29.63-87.16-29.63Z" transform="translate(23.97 -52.38)"/><path class="cls-4" d="M970.3,453.32a127.26,127.26,0,0,1,31.73,4.13,154.68,154.68,0,0,1,74,44.84q-18.19,18-36,36.52c-15.58-14.75-31.72-27.29-52.59-33a46.06,46.06,0,0,0-12-1.83c-8.87,0-13.67,3.91-14.72,9.59-1.35,7.27,6.37,11.5,27.71,22.43,33.34,17.1,73.77,44.54,64,87.81C1045,657.21,1014.71,671,984.65,671a98.75,98.75,0,0,1-27.51-3.9c-29.21-8.56-59.72-24.85-80.94-48.85q15.48-19.62,31.23-39c15.06,18,39.16,32.86,61.39,39.06A40.25,40.25,0,0,0,979.47,620c7.64,0,12.65-3.28,14-9.84,1.7-8.1-3.69-11.59-22.77-22.14-32.92-18.17-77.2-36.84-71.12-81.25,5.32-38.91,37.24-53.46,70.69-53.45m0-40h0c-25.93,0-49.45,6.49-68,18.79C878.67,447.77,864,471.71,860,501.34c-2.17,15.86-1.27,37.31,11.35,58.94-8.9,11-17.81,22.17-26.54,33.23l-20.68,26.23,22.12,25c24.27,27.45,59.66,49,99.67,60.75A137.73,137.73,0,0,0,984.65,711c54.19,0,96.14-30.79,106.88-78.45,4.34-19.22,4.78-46.69-14-75,8.81-9.05,17.74-18.08,26.66-26.93l27.24-27-25.86-28.34a194.32,194.32,0,0,0-93.5-56.59,166,166,0,0,0-41.79-5.42Z" transform="translate(23.97 -52.38)"/><path class="cls-4" d="M637.33,92.38c75.6,0,121.42,45.24,121.42,110.53,0,40.09-21.19,71-58.42,83.62,48.11,9.16,76.17,43,76.17,93.35a118.39,118.39,0,0,1-5.61,36.49q63.51,8.1,126.37,20.41-3.84,25.5-7.67,51-51.42-10.11-103.21-17.47c-1,10.05-1.54,15.07-2.57,25.12q48.95,7,97.4,16.34l-7.56,51q-47.39-9.15-95.1-15.95c-1.12,11-1.68,16.49-2.81,27.48q50.57,7.18,100.56,17.09-3.85,25.5-7.72,51-37.87-7.46-75.91-13.23-1.87,12.47-3.77,24.93,65.43,7.23,130.43,18.26-41.4,21.23-81.7,44.31,28.53,32,55,65.71-94.23-16-189.36-23.34c1.3-12.86,2-19.35,3.23-32.11Q635.91,722,565.3,722t-141.17,4.91c1.28,12.76,1.94,19.25,3.23,32.11Q332.08,766.42,238,782.38c17.6-22.49,36-44.38,55-65.71q-40.35-23.13-81.69-44.31,65-11,130.42-18.26l-4.92-32.47q40.23-4.21,80.46-6.92-7-17.12-14.19-34.13-37.46,4-74.7,9.41-4.25,20.26-8.25,40.6-26.83,4.26-53.5,9.48,21.56-110.3,49.83-219,33.38-4.69,66.83-8.42,47.37,98.16,88.44,199l7.51-.32-4.74-118.1H426V92.38H637.33M533.67,247.58h76.74c23.49,0,36.09-12,36.09-33.21s-12.6-33.79-36.09-33.79H533.67v67m0,156q9.86-.19,19.7-.3c.19.61.36,1.21.55,1.82h71.39c2.17,0,4.21-.13,6.21-.32l0-.08.45,0c21.34-2.24,32.26-15.45,32.26-36.27,0-22.91-13.17-35.51-38.94-35.51H533.67v70.64M719.18,615.11,730.25,470.8A117.23,117.23,0,0,1,709,482.35q-4.43,65.76-8.86,131.5,9.54.58,19.07,1.26m-379.13-79q20.74-2.91,41.57-5.23-13-29.34-26.38-58.47-7.82,31.8-15.19,63.7M654.27,493.2c-1.11,0-2.21.07-3.33.07q-16.73,48.15-32.38,96.66-28.39-1-56.81-1h-.43q-14-48-29.06-95.62h-4q.9,58.35,1.79,116.7,17.7-.29,35.37-.29,41.89,0,83.79,1.61,2.52-59.06,5-118.1m-63.43,40.62q6.07-20.31,12.35-40.54H579.63q5.68,20.25,11.21,40.54M637.33,52.38H386V372.11l-7.15.8c-22.6,2.51-45.47,5.39-68,8.56l-26.42,3.72L277.73,411C259,483,242.28,556.37,228,629.08q-11.75,1.86-23.41,3.85L86,653.07,193,708q18.93,9.7,37.64,19.82-12.53,15.08-24.17,30l-63.63,81.34,101.82-17.26c61.29-10.4,123.79-18.1,185.76-22.9l40.81-3.17L468.1,764.4c32.42-1.58,65-2.38,97.2-2.38s64.79.8,97.21,2.38l-3.15,31.35,40.8,3.17c62,4.8,124.47,12.5,185.76,22.9L988,839.13l-63.94-81.45q-11.91-15.18-24.13-29.91,18.67-10.1,37.64-19.82l107-54.88L926,632.93q-7.57-1.29-15.18-2.53l5-33,5.73-37.8-6.82-1.35,3.37-22.73.19-1.32,4.6.9,6.23-41.37,7.67-51,5.69-37.84L905,397.53c-29.16-5.72-58.78-10.82-88.48-15.24,0-.8,0-1.61,0-2.41,0-34-10.06-64.27-29.11-87.5a119.69,119.69,0,0,0-12.23-12.84l1.19-1.68c14.65-21.09,22.4-47,22.4-75A157.8,157.8,0,0,0,787.44,143a137.54,137.54,0,0,0-33.79-49.1C724.5,66.73,684.27,52.38,637.33,52.38Z" transform="translate(23.97 -52.38)"/><path class="cls-5" d="M776.5,379.88c0,64.72-48.11,113.4-126,113.4H426V92.38H637.33c75.6,0,121.42,45.24,121.42,110.53,0,40.09-21.19,71-58.42,83.62C748.44,295.69,776.5,329.48,776.5,379.88ZM533.67,180.58v67h76.74c23.49,0,36.09-12,36.09-33.21s-12.6-33.79-36.09-33.79ZM664.25,368.43c0-22.91-13.17-35.51-38.94-35.51H533.67v69.16l91.64,2C651.08,404.08,664.25,391.34,664.25,368.43Z" transform="translate(23.97 -52.38)"/><g class="cls-6"><rect class="cls-7" x="3" y="330.46" width="1175.45" height="305.44"/></g><path class="cls-1" d="M590.84,533.82q-17.77-65.57-37.47-130.56-41.25.44-82.4,2.41,4.17,104,8.35,208.05,25.38-1.37,50.79-1.89-1-65.88-2-131.78,17.29,54.23,33.23,108.85,28.62,0,57.24,1,17.41-54,36.17-107.58-2.81,65.82-5.6,131.64,25.38,1.44,50.72,3.73,7-103.83,14-207.64-41.13-3.48-82.3-5.4Q610.24,469,590.84,533.82Z" transform="translate(23.97 -52.38)"/><path class="cls-3" d="M175.52,447.19c22.34,0,44.24,6.75,62.42,21.06Q218.43,490,199.57,512.37a48.79,48.79,0,0,0-30.07-10.21,51.86,51.86,0,0,0-12.88,1.63C127,511.4,110.81,540.27,117,569.73c5.09,24.18,24.1,40.74,47.36,40.74a51.75,51.75,0,0,0,12.51-1.56c16.65-4.12,30.43-16.32,34.46-33.42q-20,4.46-39.81,9.5-4.07-21.66-8.12-43.32,50.43-12.45,101.35-22.16c1,2.83,2.13,9.62,3.25,17.17,8.4,56.63-26.58,111.32-82.58,125.5a106.19,106.19,0,0,1-26,3.29c-46.24,0-86.06-31.56-97.48-79.23-14.86-62,24.29-120,85.06-135.44a116.41,116.41,0,0,1,28.51-3.61m0-17.37v0A133.58,133.58,0,0,0,142.74,434c-34,8.62-62.88,29.12-81.24,57.71a126.43,126.43,0,0,0-16.45,98.62c6.48,27,20.89,50.19,41.67,67a114.57,114.57,0,0,0,72.71,25.59A123.29,123.29,0,0,0,189.69,679a127.59,127.59,0,0,0,75.73-54.17,130.75,130.75,0,0,0,19.78-90.7c-1.87-12.63-3-17.26-4-20.33l-4.92-14.18-14.75,2.81q-18.47,3.53-37,7.44c8.69-10.11,17.52-20.16,26.37-30l12.38-13.79L248.69,454.6c-20.6-16.21-45.9-24.78-73.17-24.78ZM146.25,528a37.6,37.6,0,0,1,14.69-7.39,34.64,34.64,0,0,1,8.56-1.09,32.48,32.48,0,0,1,7.74.92q-9,2.13-18,4.35l-13,3.21Zm8.86,63.65c-10.51-3.42-18.4-12.68-21.1-25.51-2.93-13.93.94-27,9.62-35.74l2.71,14.46,8.12,43.32.65,3.47Z" transform="translate(23.97 -52.38)"/><path class="cls-3" d="M970.3,453.32a127.26,127.26,0,0,1,31.73,4.13,154.68,154.68,0,0,1,74,44.84q-18.19,18-36,36.52c-15.58-14.75-31.72-27.29-52.59-33a46.06,46.06,0,0,0-12-1.83c-8.87,0-13.67,3.91-14.72,9.59-1.35,7.27,6.37,11.5,27.71,22.43,33.34,17.1,73.77,44.54,64,87.81C1045,657.21,1014.71,671,984.65,671a98.75,98.75,0,0,1-27.51-3.9c-29.21-8.56-59.72-24.85-80.94-48.85q15.48-19.62,31.23-39c15.06,18,39.16,32.86,61.39,39.06A40.25,40.25,0,0,0,979.47,620c7.64,0,12.65-3.28,14-9.84,1.7-8.1-3.69-11.59-22.77-22.14-32.92-18.17-77.2-36.84-71.12-81.25,5.32-38.91,37.24-53.46,70.69-53.45m0-17.38h0c-21.46,0-40.65,5.2-55.49,15-18.06,12-29.26,30.45-32.41,53.44-2.92,21.28,2.94,40.34,17.39,56.72l-5.84,7.2c-10.52,12.94-21.08,26.13-31.39,39.19l-9,11.4,9.61,10.87c21.47,24.29,53.11,43.47,89.07,54a116.84,116.84,0,0,0,32.39,4.61c19.31,0,37.14-4.75,51.56-13.72a73.19,73.19,0,0,0,33.25-47.09,71.9,71.9,0,0,0-1.65-38.82c-3.5-10.65-9.65-20.87-18.27-30.38-.67-.74-1.35-1.48-2-2.21l5.13-5.34c11.69-12.16,23.69-24.35,35.67-36.23l11.82-11.73-11.22-12.31a171.51,171.51,0,0,0-82.49-49.94,146,146,0,0,0-36.1-4.7Z" transform="translate(23.97 -52.38)"/><path class="cls-3" d="M637.33,92.38c75.6,0,121.42,45.24,121.42,110.53,0,40.09-21.19,71-58.42,83.62,48.11,9.16,76.17,43,76.17,93.35a118.39,118.39,0,0,1-5.61,36.49q63.51,8.1,126.37,20.41-3.84,25.5-7.67,51-51.42-10.11-103.21-17.47c-1,10.05-1.54,15.07-2.57,25.12q48.95,7,97.4,16.34l-7.56,51q-47.39-9.15-95.1-15.95c-1.12,11-1.68,16.49-2.81,27.48q50.57,7.18,100.56,17.09-3.85,25.5-7.72,51-37.87-7.46-75.91-13.23-1.87,12.47-3.77,24.93,65.43,7.23,130.43,18.26-41.4,21.23-81.7,44.31,28.53,32,55,65.71-94.23-16-189.36-23.34c1.3-12.86,2-19.35,3.23-32.11Q635.91,722,565.3,722t-141.17,4.91c1.28,12.76,1.94,19.25,3.23,32.11Q332.08,766.42,238,782.38c17.6-22.49,36-44.38,55-65.71q-40.35-23.13-81.69-44.31,65-11,130.42-18.26l-4.92-32.47q40.23-4.21,80.46-6.92-7-17.12-14.19-34.13-37.46,4-74.7,9.41-4.25,20.26-8.25,40.6-26.83,4.26-53.5,9.48,21.56-110.3,49.83-219,33.38-4.69,66.83-8.42,47.37,98.16,88.44,199l7.51-.32-4.74-118.1H426V92.38H637.33M533.67,247.58h76.74c23.49,0,36.09-12,36.09-33.21s-12.6-33.79-36.09-33.79H533.67v67m0,156h1.49c13.4,0,94.69,1.13,96.35,1.13h0l.45,0c21.34-2.24,32.26-15.45,32.26-36.27,0-22.91-13.17-35.51-38.94-35.51H533.67v70.64M719.18,615.11,730.25,470.8A117.23,117.23,0,0,1,709,482.35q-4.43,65.76-8.86,131.5,9.54.58,19.07,1.26m-379.13-79q20.74-2.91,41.57-5.23-13-29.34-26.38-58.47-7.82,31.8-15.19,63.7M654.27,493.2c-1.11,0-2.21.07-3.33.07q-16.73,48.15-32.38,96.66-28.41-1-56.83-1h-.41q-14-48-29.06-95.62h-4q.9,58.35,1.79,116.7,17.7-.29,35.38-.29,41.89,0,83.78,1.61,2.52-59.06,5-118.1m-63.43,40.62q6.07-20.31,12.35-40.54H579.63q5.68,20.25,11.21,40.54M637.33,75H408.63V425.42q-4.83-10.19-9.72-20.31L393.57,394l-12.22,1.36c-22.38,2.49-45,5.34-67.33,8.48l-11.47,1.62-2.92,11.21c-18.89,72.66-35.74,146.69-50.07,220L247.16,649q-19.47,3-38.78,6.25L156.89,664l46.47,23.83c21,10.8,42,22,62.48,33.45-14.62,16.91-28.53,33.81-41.52,50.41L196.69,807l44.22-7.49c62-10.51,125.14-18.3,187.79-23.15L446.42,775l-1.78-17.68-1.42-14.2c40.6-2.46,81.59-3.71,122.08-3.71s81.49,1.25,122.1,3.71L686,757.3,684.19,775l17.72,1.38c62.65,4.85,125.83,12.64,187.79,23.15L934,807l-27.77-35.37c-13.56-17.27-27.46-34.16-41.48-50.39,20.47-11.43,41.41-22.64,62.46-33.44L973.72,664l-51.48-8.75q-18.48-3.15-37.13-6l.64-4.25,5-33.09,2.72-17.9L896,577.59l-6.76-1.33,1.62-10.92,5.31-35.79,2.25-15.24,1-6.89,4.65.91,2.7-18,7.67-51,2.47-16.43-16.3-3.2c-35.69-7-72.07-13.06-108.42-18.06a140.08,140.08,0,0,0,1.68-21.79c0-43.82-19-78-52.43-96.88,22.19-19.1,34.68-47.13,34.68-80.09a135.25,135.25,0,0,0-9.63-51.37,115.08,115.08,0,0,0-28.26-41.09C713.34,87.26,678.45,75,637.33,75ZM551,198h59.37c15.53,0,18.71,6.56,18.71,16.42,0,8-1.44,15.84-18.71,15.84H551V198Zm0,152.34h74.27c19.92,0,21.57,8.58,21.57,18.14,0,12-4.37,17.36-15.49,18.85l-10.33-.48-.19.37-4-.05c-18-.24-47.1-.62-65.79-.82v-36ZM447.68,510.65h10.11l.92,22.69.11,2.78q-5.52-12.75-11.14-25.47Z" transform="translate(23.97 -52.38)"/><g class="cls-8"><rect class="cls-7" x="3" y="330.46" width="1175.45" height="305.44"/></g><path class="cls-1" d="M268,536.68c-1.12-7.55-2.27-14.34-3.25-17.17q-51,9.74-101.35,22.16,4.07,21.66,8.12,43.32,19.83-5,39.81-9.5c-4,17.1-17.81,29.3-34.46,33.42C148.17,616,123,598.13,117,569.73c-6.2-29.46,9.95-58.33,39.61-65.94a49.6,49.6,0,0,1,42.95,8.58q18.84-22.35,38.37-44.12C212,447.85,178.53,442.82,147,450.8,86.24,466.19,47.09,524.28,62,586.24c13.52,56.43,66.83,90.28,123.48,75.94C241.43,648,276.41,593.31,268,536.68Z" transform="translate(23.97 -52.38)"/><g class="cls-9"><rect class="cls-7" x="3" y="330.46" width="1175.45" height="305.44"/></g><path class="cls-1" d="M316.44,421.08q-28.28,108.77-49.83,219,26.65-5.22,53.5-9.48,4-20.33,8.25-40.6,37.29-5.41,74.7-9.41,7.94,18.74,15.61,37.59,27-2.52,54-4.08-41.52-102.18-89.43-201.43Q349.78,416.4,316.44,421.08Zm23.61,115q7.38-31.9,15.19-63.7,13.39,29.15,26.38,58.47Q360.82,533.2,340.05,536.12Z" transform="translate(23.97 -52.38)"/><g class="cls-10"><rect class="cls-7" x="3" y="330.46" width="1175.45" height="305.44"/></g><path class="cls-1" d="M775.74,574.32c1.13-11,1.69-16.49,2.81-27.48q47.79,6.81,95.1,15.95l7.56-51q-48.54-9.37-97.4-16.34c1-10.05,1.54-15.07,2.57-25.12q51.89,7.38,103.21,17.47,3.84-25.5,7.67-51C843.39,426.21,789.33,418,734.75,412.09q-7.95,103.73-15.91,207.46c50.29,5.47,100.1,13.08,149.74,22.85q3.85-25.5,7.72-51Q826.21,581.49,775.74,574.32Z" transform="translate(23.97 -52.38)"/><g class="cls-11"><rect class="cls-7" x="3" y="330.46" width="1175.45" height="305.44"/></g><path class="cls-1" d="M988.5,536c-21.34-10.93-29.06-15.16-27.71-22.43,1.46-7.86,10.07-12.33,26.72-7.76,20.87,5.74,37,18.28,52.59,33q17.76-18.46,36-36.52a154.68,154.68,0,0,0-74-44.84c-42.07-10.94-95.39-2-102.42,49.32-6.08,44.41,38.2,63.08,71.12,81.25,19.08,10.55,24.47,14,22.77,22.14-1.94,9.25-11.11,12-24.68,8.18-22.23-6.2-46.33-21-61.39-39.06q-15.76,19.4-31.23,39c21.22,24,51.73,40.29,80.94,48.85,36.34,10.65,85.47.56,95.37-43.35C1062.27,580.51,1021.84,553.07,988.5,536Z" transform="translate(23.97 -52.38)"/><path class="cls-12" d="M553.37,403.26q19.7,65,37.47,130.56,19.39-64.88,40.7-129.14,41.22,1.92,82.3,5.4-7,103.82-14,207.64-25.33-2.28-50.72-3.73,2.8-65.82,5.6-131.64Q636,535.93,618.56,589.93q-28.39-1-56.82-1h-.42q-15.95-54.64-33.23-108.85,1,65.9,2,131.78-25.41.52-50.79,1.89-4.19-104-8.35-208,41.2-2,82.4-2.41M563,390.14l-9.77.1c-27.52.28-55.41,1.09-82.9,2.42l-12.91.62L458,406.2l8.35,208,.53,13.19,13.18-.7c16.7-.9,33.65-1.53,50.37-1.87l13-.27-.2-13-.62-40.46q3.18,10.7,6.29,21.38l2.74,9.38h10.19c18.7,0,37.66.35,56.34,1l9.85.36,3-9.38q3.4-10.56,6.88-21.17l-1.73,40.68-.54,12.83,12.82.73c16.7,1,33.62,2.19,50.29,3.69l13.27,1.2.9-13.3,9.31-138.2L726.84,411l.86-12.78-12.76-1.08c-27.44-2.33-55.29-4.15-82.79-5.43l-9.87-.46-3.11,9.37c-9.48,28.61-18.76,57.57-27.73,86.52-8.25-29.3-16.82-58.63-25.6-87.61L563,390.14Z" transform="translate(23.97 -52.38)"/><path class="cls-12" d="M175.52,447.19c22.34,0,44.24,6.75,62.42,21.06Q218.43,490,199.57,512.37a48.79,48.79,0,0,0-30.07-10.21,51.86,51.86,0,0,0-12.88,1.63C127,511.4,110.81,540.27,117,569.73c5.09,24.18,24.1,40.74,47.36,40.74a51.75,51.75,0,0,0,12.51-1.56c16.65-4.12,30.43-16.32,34.46-33.42q-20,4.46-39.81,9.5-4.07-21.66-8.12-43.32,50.43-12.45,101.35-22.16c1,2.83,2.13,9.62,3.25,17.17,8.4,56.63-26.58,111.32-82.58,125.5a106.21,106.21,0,0,1-26,3.29c-46.23,0-86-31.56-97.47-79.23-14.86-62,24.29-120,85.06-135.44a116.41,116.41,0,0,1,28.51-3.61m0-13h0a129.28,129.28,0,0,0-31.71,4c-33,8.35-60.9,28.18-78.65,55.85a122,122,0,0,0-15.88,95.25c6.25,26.1,20.14,48.44,40.17,64.6a110.25,110.25,0,0,0,70,24.63,119.1,119.1,0,0,0,29.21-3.7,123.23,123.23,0,0,0,73.15-52.33,126.39,126.39,0,0,0,19.12-87.7c-1.56-10.52-2.67-16.18-3.83-19.53l-3.69-10.64-11.06,2.11c-16.45,3.14-33,6.51-49.45,10.1,11.37-13.41,23-26.8,34.77-39.86l9.28-10.34L246,458c-19.82-15.6-44.19-23.85-70.48-23.85Zm-15,163.07c-15.14-1.68-27.28-13.39-30.81-30.18-4.88-23.22,8.06-45,30.1-50.64a39,39,0,0,1,9.64-1.22,35.67,35.67,0,0,1,21,6.64q-15.15,3.48-30.17,7.19l-11.95,3,2.27,12.1,8.11,43.32,1.85,9.84Z" transform="translate(23.97 -52.38)"/><path class="cls-12" d="M383.27,412.66Q431.2,512,472.7,614.09q-27,1.56-54,4.08-7.67-18.84-15.61-37.59-37.46,4-74.7,9.41-4.25,20.26-8.25,40.6-26.83,4.26-53.5,9.48,21.56-110.3,49.83-219,33.38-4.69,66.83-8.42M340.05,536.12q20.74-2.91,41.57-5.23-13-29.34-26.38-58.47-7.82,31.8-15.19,63.7M391,398.69l-9.17,1c-22.34,2.49-44.95,5.34-67.2,8.47L306,409.39l-2.18,8.41c-18.87,72.58-35.7,146.52-50,219.77l-3.71,19,19-3.71c17.55-3.42,35.4-6.59,53.06-9.39l9-1.43,1.76-8.93c2.05-10.45,4.18-21,6.35-31.5,18.45-2.59,37.07-4.94,55.58-7,4,9.48,7.92,19,11.78,28.5l3.65,8.95,9.63-.9c17.74-1.65,35.76-3,53.56-4L491.62,626l-6.85-16.86c-27.63-68-57.83-136-89.77-202.18l-4-8.31Zm-34,122q1-4.23,2-8.47l3.49,7.78-5.49.69Z" transform="translate(23.97 -52.38)"/><path class="cls-12" d="M734.75,412.09c54.58,5.91,108.64,14.12,162.51,24.69q-3.84,25.5-7.67,51-51.42-10.11-103.21-17.47c-1,10.05-1.54,15.07-2.57,25.12q48.95,7,97.4,16.34l-7.56,51q-47.39-9.15-95.1-15.95c-1.12,11-1.68,16.49-2.81,27.48q50.57,7.18,100.56,17.09-3.85,25.5-7.72,51c-49.64-9.77-99.45-17.38-149.74-22.85q7.95-103.72,15.91-207.46m-12-14.39-1,13.4L716.25,483l-10.4,135.55-1,12.58,12.55,1.37c49.62,5.4,99.63,13,148.63,22.68l13.36,2.63,2-13.46,5.75-38,2-13,1.87-12.31-12.22-2.42c-29.35-5.81-59.18-11-88.86-15.41l.16-1.52c27.06,4,54.26,8.71,81,13.88l13.36,2.58,2-13.46,5.71-38.52,1.85-12.5,1.69-11.4,4.66.91,2-13.47,7.68-51L912,426.39,899.77,424c-53.94-10.58-109-18.94-163.62-24.85l-13.36-1.44Z" transform="translate(23.97 -52.38)"/><path class="cls-12" d="M970.3,453.32a127.26,127.26,0,0,1,31.73,4.13,154.68,154.68,0,0,1,74,44.84q-18.19,18-36,36.52c-15.58-14.75-31.72-27.29-52.59-33a46.06,46.06,0,0,0-12-1.83c-8.87,0-13.67,3.91-14.72,9.59-1.35,7.27,6.37,11.5,27.71,22.43,33.34,17.1,73.77,44.54,64,87.81C1045,657.21,1014.71,671,984.65,671a98.75,98.75,0,0,1-27.51-3.9c-29.21-8.56-59.72-24.85-80.94-48.85q15.48-19.62,31.23-39c15.06,18,39.16,32.86,61.39,39.06A40.25,40.25,0,0,0,979.47,620c7.64,0,12.65-3.28,14-9.84,1.7-8.1-3.69-11.59-22.77-22.14-32.92-18.17-77.2-36.84-71.12-81.25,5.32-38.91,37.24-53.46,70.69-53.45m0-13v0c-20.61,0-39,4.94-53.09,14.3-17,11.26-27.54,28.69-30.51,50.41-2.89,21.13,3.44,39.94,18.84,56l-8.22,10.11C886.81,584,876.26,597.16,866,610.21l-6.73,8.55,7.2,8.15c20.94,23.69,51.85,42.41,87,52.72a112.29,112.29,0,0,0,31.17,4.43c18.5,0,35.54-4.51,49.26-13.06a68.88,68.88,0,0,0,31.31-44.35c5.33-23.64-1-45.62-18.9-65.34-1.55-1.71-3.19-3.4-4.9-5.07l8.07-8.4c11.71-12.19,23.74-24.4,35.74-36.31l8.87-8.79-8.42-9.23a167.06,167.06,0,0,0-80.37-48.67,141.14,141.14,0,0,0-35-4.55Zm54.77,102.39a243.77,243.77,0,0,0-30.63-18.3c-3.93-2-8.56-4.39-12.55-6.58.7.16,1.43.34,2.17.55,16.26,4.46,29.38,14,41,24.33Zm-47.83,64.14a33,33,0,0,1-4.92-1c-19.74-5.51-40.52-18.47-53.56-33.3,11.38,8.51,24.32,15.44,36.09,21.75,3.34,1.79,6.5,3.48,9.58,5.18,3.71,2.05,9,5,12.81,7.4Z" transform="translate(23.97 -52.38)"/><path class="cls-5" d="M776.94,733a2036.78,2036.78,0,0,0-423.27,0q-8.43-55.71-16.88-111.41a2191.33,2191.33,0,0,1,457,0Q785.38,677.34,776.94,733Z" transform="translate(23.97 -52.38)"/><path class="cls-5" d="M427.36,759Q332.08,766.42,238,782.38c17.6-22.49,36-44.38,55-65.71q-40.35-23.13-81.69-44.31,101.9-17.31,204.81-25.25Q421.73,703.08,427.36,759Z" transform="translate(23.97 -52.38)"/><path class="cls-13" d="M427.36,759c-1.3-13-2-19.44-3.26-32.4-23.51,1.68-47,3.87-70.43,6.4Q390.78,745.37,427.36,759Z" transform="translate(23.97 -52.38)"/><path class="cls-5" d="M703.25,759q95.28,7.38,189.36,23.34-26.46-33.69-55-65.71,40.35-23.13,81.7-44.31-101.91-17.31-204.82-25.25Q708.89,703.08,703.25,759Z" transform="translate(23.97 -52.38)"/><path class="cls-13" d="M703.25,759c1.31-13,2-19.44,3.26-32.4,23.51,1.73,47,3.81,70.43,6.4Q739.83,745.37,703.25,759Z" transform="translate(23.97 -52.38)"/><path class="cls-4" d="M492.72,683l.85,17q-22.93.81-45.85,2.2l-1.15-14,1.84-2.27c7.1-8.49,10.71-12.73,18-21.16,2.71-3.17,4.36-5.1,4.15-8.33-.23-3.51-2.47-6.25-7-6a14.65,14.65,0,0,0-11.74,7.78c-4.53-4.18-6.81-6.27-11.39-10.42,4.41-8.7,13.8-14,24-14.45,13.63-.66,24.49,7.18,25.2,21.05.38,7.33-2.23,12.8-10.92,22.77-2.32,2.64-3.47,4-5.77,6.62C480.9,683.49,484.84,683.33,492.72,683Z" transform="translate(23.97 -52.38)"/><path class="cls-4" d="M500.66,666.52c-.48-18.3,11.18-35,29.71-35.27,17.54-.25,31.87,16.49,31.53,34.24C561.58,682.41,550.45,700,532,700.3S501.11,684,500.66,666.52Zm42.09-.91c-.16-10.36-5.18-16.67-11.86-16.56s-11.4,7-11.09,17,5.33,16.61,11.86,16.5S542.9,675.59,542.75,665.61Z" transform="translate(23.97 -52.38)"/><path class="cls-4" d="M616.84,682.39c-.24,6.8-.37,10.2-.61,17q-22.93-.61-45.89-.65l0-14,2-2.14c7.8-8,11.76-12,19.78-20,3-3,4.78-4.82,4.85-8,.07-3.52-1.93-6.39-6.46-6.44a15,15,0,0,0-12.36,7c-4.15-4.45-6.24-6.67-10.46-11.09,5.15-8.41,15-13.06,25.2-12.93,13.64.19,23.8,8.68,23.32,22.56-.25,7.33-3.32,12.62-12.84,22-2.54,2.49-3.8,3.74-6.32,6.25C605,682.1,609,682.18,616.84,682.39Z" transform="translate(23.97 -52.38)"/><path class="cls-4" d="M626.17,666.4c1.12-18.36,14.12-34.18,32.66-33.33,17.49.8,30.43,18.49,28.54,36.1C685.56,686.09,673,702.84,654.53,702S625.1,683.79,626.17,666.4Zm42.07,1.7c.73-10.35-3.74-17-10.42-17.25s-12,6.25-12.51,16.22,3.89,16.89,10.42,17.19S667.54,678.06,668.24,668.1Z" transform="translate(23.97 -52.38)"/><path class="cls-12" d="M565.3,609.68a2196.42,2196.42,0,0,1,228.52,12L788.9,654.1q65.43,7.23,130.43,18.26-41.4,21.23-81.7,44.31,28.53,32,55,65.71-94.23-16-189.36-23.34c1.3-12.86,2-19.35,3.23-32.11Q635.91,722,565.3,722t-141.17,4.91c1.28,12.76,1.94,19.25,3.23,32.11Q332.08,766.42,238,782.38c17.6-22.49,36-44.38,55-65.71q-40.35-23.13-81.69-44.31,65-11,130.42-18.26l-4.92-32.47a2193.48,2193.48,0,0,1,228.51-12m0-13a2219.17,2219.17,0,0,0-229.86,12l-13.57,1.42,2,13.49,2.9,19.1c-39.37,4.59-78.9,10.24-117.71,16.84l-38.61,6.56L205.34,684c22.7,11.65,45.27,23.77,67.27,36.14-15.85,18.2-30.9,36.4-44.87,54.26L207,800.85l33.16-5.63c62.1-10.52,125.41-18.33,188.19-23.19l13.29-1-1.34-13.27L438.44,739c42.17-2.65,84.78-4,126.86-4s84.7,1.34,126.87,4l-1.88,18.69L689,771l13.29,1c62.77,4.86,126.09,12.67,188.18,23.19l33.25,5.64-20.83-26.53c-14.64-18.65-29.68-36.84-44.84-54.25,22-12.36,44.56-24.48,67.26-36.13l34.85-17.87-38.61-6.56c-38.81-6.6-78.34-12.25-117.7-16.84l.43-2.86,2.46-16.24,2-13.49-13.57-1.42a2219.21,2219.21,0,0,0-229.87-12Z" transform="translate(23.97 -52.38)"/></svg>