<?xml version="1.0" encoding="utf-8"?>
<!-- Generator: Adobe Illustrator 17.0.0, SVG Export Plug-In . SVG Version: 6.00 Build 0)  -->
<!DOCTYPE svg PUBLIC "-//W3C//DTD SVG 1.1//EN" "http://www.w3.org/Graphics/SVG/1.1/DTD/svg11.dtd">
<svg version="1.1" id="Layer_1" xmlns="http://www.w3.org/2000/svg" xmlns:xlink="http://www.w3.org/1999/xlink" x="0px" y="0px"
	 width="74.93px" height="49.93px" viewBox="0 0 74.93 49.93" enable-background="new 0 0 74.93 49.93" xml:space="preserve">
<g>
	<g>
		<path fill="#FFFFFF" d="M72.465,49.965h-70c-1.381,0-2.5-1.119-2.5-2.5v-45c0-1.381,1.119-2.5,2.5-2.5h70
			c1.381,0,2.5,1.119,2.5,2.5v45C74.965,48.846,73.846,49.965,72.465,49.965z M4.965,44.965h65v-40h-65V44.965z"/>
	</g>
	<g>
		<path fill="#FFFFFF" d="M37.464,35.957c-0.587,0-1.176-0.205-1.651-0.624L1.594,5.208C0.557,4.295,0.457,2.716,1.369,1.679
			c0.913-1.036,2.492-1.137,3.528-0.225l34.22,30.126c1.036,0.912,1.137,2.491,0.224,3.528
			C38.848,35.67,38.157,35.957,37.464,35.957z"/>
	</g>
	<g>
		<path fill="#FFFFFF" d="M37.466,35.957c-0.693,0-1.383-0.287-1.877-0.848c-0.912-1.037-0.812-2.616,0.225-3.528L70.031,1.455
			c1.037-0.912,2.615-0.812,3.528,0.225s0.813,2.616-0.224,3.528L39.117,35.333C38.642,35.752,38.053,35.957,37.466,35.957z"/>
	</g>
</g>
</svg>
