<svg xmlns="http://www.w3.org/2000/svg" viewBox="0 0 170.08 170.85"><defs><style>.cls-1{fill:#162b2f;}.cls-2{fill:#f1f1f1;}</style></defs><title>Oni-Asssinatura-02</title><g id="Layer_2" data-name="Layer 2"><g id="Layer_1-2" data-name="Layer 1"><rect class="cls-1" width="170.08" height="170.85"/><path class="cls-2" d="M63.2,92.63c0-4.86-2.83-8.4-7.43-8.4s-7.42,3.54-7.42,8.4,2.83,8.4,7.42,8.4,7.43-3.54,7.43-8.4m-24,0c0-9.19,7.25-15.91,16.53-15.91S72.3,83.44,72.3,92.63s-7.25,15.91-16.53,15.91-16.53-6.72-16.53-15.91"/><path class="cls-2" d="M78.13,77.52H87v3.89c2-3.27,5.22-4.69,9.46-4.69,6.72,0,11.4,4.69,11.4,12.73v18.3H99V90.07c0-3.36-1.76-5.39-5.39-5.39C89.36,84.68,87,87,87,91.48v16.27H78.13Z"/><path class="cls-2" d="M114.55,77.52h8.84v30.23h-8.84ZM113.4,63.64A5.57,5.57,0,1,1,119,69.21a5.6,5.6,0,0,1-5.57-5.57"/></g></g></svg>