<?xml version="1.0" encoding="utf-8"?>
<!-- Generator: Adobe Illustrator 17.0.0, SVG Export Plug-In . SVG Version: 6.00 Build 0)  -->
<!DOCTYPE svg PUBLIC "-//W3C//DTD SVG 1.1//EN" "http://www.w3.org/Graphics/SVG/1.1/DTD/svg11.dtd">
<svg version="1.1" id="Layer_1" xmlns="http://www.w3.org/2000/svg" xmlns:xlink="http://www.w3.org/1999/xlink" x="0px" y="0px"
	 width="400px" height="400px" viewBox="0 0 400 400" enable-background="new 0 0 400 400" xml:space="preserve">
<g>
	<g>
		<path fill="#FFFFFF" d="M148.64,216.96c0-11.36-6.72-19.68-17.44-19.68c-10.88,0-17.44,8.32-17.44,19.68
			c0,11.36,6.72,19.68,17.44,19.68C141.92,236.64,148.64,228.32,148.64,216.96 M92.32,216.96c0-21.6,17.12-37.44,38.88-37.44
			s38.88,15.84,38.88,37.44s-17.12,37.44-38.88,37.44C109.28,254.4,92.32,238.56,92.32,216.96"/>
		<path fill="#FFFFFF" d="M183.68,181.44h20.8v9.12c4.64-7.68,12.32-11.04,22.24-11.04c15.84,0,26.88,11.04,26.88,29.92v43.04h-20.8
			v-41.6c0-7.84-4.16-12.64-12.64-12.64c-9.92,0-15.52,5.44-15.52,16v38.24h-20.8v-71.04H183.68z"/>
		<path fill="#FFFFFF" d="M269.44,181.44h20.8v71.04h-20.8V181.44z M266.72,148.8c0-7.52,6.24-13.12,13.12-13.12
			c7.04,0,13.12,5.6,13.12,13.12s-6.08,13.12-13.12,13.12C272.96,161.92,266.72,156.32,266.72,148.8"/>
	</g>
</g>
</svg>
