<?xml version="1.0" encoding="utf-8"?>
<!-- Generator: Adobe Illustrator 17.0.0, SVG Export Plug-In . SVG Version: 6.00 Build 0)  -->
<!DOCTYPE svg PUBLIC "-//W3C//DTD SVG 1.1//EN" "http://www.w3.org/Graphics/SVG/1.1/DTD/svg11.dtd">
<svg version="1.1" id="Layer_1" xmlns="http://www.w3.org/2000/svg" xmlns:xlink="http://www.w3.org/1999/xlink" x="0px" y="0px"
	 width="70px" height="70px" viewBox="0 0 70 70" enable-background="new 0 0 70 70" xml:space="preserve">
<path id="XMLID_1_" fill="#FFFFFF" d="M14.387,5c0.039,0,0.078,0.002,0.121,0.006c0.357,0.031,0.68,0.191,0.864,0.346l8.127,10.259
	c0.082,0.104,0.169,0.205,0.259,0.302c0.289,0.31,0.308,0.789,0.066,1.123l-3.998,2.661c-1.731,1.152-2.568,3.254-2.103,5.28
	c0.813,3.543,4.907,9.141,11.529,15.764c6.621,6.622,12.219,10.718,15.761,11.532c0.373,0.086,0.749,0.127,1.121,0.127
	c1.649,0,3.223-0.818,4.163-2.231l2.66-3.999c0.184-0.135,0.38-0.166,0.521-0.166c0.16,0,0.394,0.04,0.599,0.232
	c0.098,0.091,0.199,0.178,0.303,0.26l10.261,8.128c0.456,0.517,0.421,1.241,0.218,1.455c-0.051,0.054-0.101,0.109-0.15,0.165
	l-7.217,8.292C57.266,64.721,56.549,65,55.101,65c-2.513,0-6.133-0.857-9.93-2.35c-4.593-1.807-13.643-6.183-22.641-15.182
	c-6.67-6.671-12.061-14.714-15.18-22.645c-2.797-7.114-2.615-11.487-1.89-12.32l8.295-7.223c0.055-0.048,0.109-0.097,0.162-0.147
	C13.98,5.071,14.142,5,14.387,5 M14.387,0c-1.495,0-2.893,0.535-3.916,1.508L2.112,8.787C2.058,8.834,2.006,8.883,1.955,8.934
	c-4.033,4.034-0.824,13.734,0.742,17.718c3.366,8.557,9.154,17.205,16.298,24.351c9.639,9.641,19.391,14.351,24.346,16.3
	C45.904,68.311,50.836,70,55.101,70c2.361,0,4.517-0.517,5.954-1.954c0.051-0.051,0.1-0.104,0.147-0.158l7.276-8.361
	c2.158-2.267,2.006-6.127-0.36-8.499c-0.085-0.085-0.175-0.166-0.27-0.241l-10.364-8.21c-1.126-1.049-2.567-1.573-4.007-1.573
	c-1.506,0-3.013,0.573-4.16,1.72c-0.146,0.146-0.277,0.306-0.391,0.478l-2.793,4.199c-1.456-0.335-5.679-2.527-13.346-10.195
	c-7.666-7.668-9.857-11.892-10.191-13.347l4.198-2.794c0.172-0.114,0.332-0.245,0.478-0.391c2.241-2.244,2.29-5.864,0.146-8.167
	L19.207,2.141c-0.074-0.093-0.153-0.183-0.237-0.267c-1.041-1.042-2.509-1.716-4.025-1.849C14.758,0.008,14.572,0,14.387,0L14.387,0
	z"/>
</svg>
